<svg width="800" height="800" viewBox="0 0 800 800" fill="none" xmlns="http://www.w3.org/2000/svg">
<path fill-rule="evenodd" clip-rule="evenodd" d="M400.007 266.667C326.37 266.667 266.675 326.362 266.675 400C266.675 473.637 326.37 533.333 400.007 533.333C473.647 533.333 533.34 473.637 533.34 400C533.34 326.362 473.647 266.667 400.007 266.667ZM333.34 400C333.34 363.18 363.19 333.333 400.007 333.333C436.827 333.333 466.673 363.18 466.673 400C466.673 436.82 436.827 466.667 400.007 466.667C363.19 466.667 333.34 436.82 333.34 400Z" fill="#CDCFD6"/>
<path fill-rule="evenodd" clip-rule="evenodd" d="M376.223 16.6667C329.528 16.6667 288.203 48.9151 279.057 95.2017L276.421 108.541C270.163 140.213 235.398 161.02 201.504 149.604L188.275 145.149C144.082 130.265 94.6242 147.656 70.6119 187.978L46.8306 227.912C22.5909 268.615 31.8115 320.162 67.9756 350.473L78.5712 359.353C104.313 380.93 104.313 419.07 78.5712 440.647L67.9756 449.527C31.8115 479.837 22.5909 531.383 46.8306 572.087L70.6109 612.02C94.6239 652.343 144.083 669.733 188.277 654.85L201.502 650.393C235.397 638.977 270.163 659.783 276.421 691.457L279.057 704.797C288.203 751.083 329.528 783.333 376.223 783.333H423.787C470.487 783.333 511.81 751.083 520.957 704.793L523.59 691.46C529.847 659.787 564.613 638.977 598.51 650.393L611.737 654.85C655.93 669.733 705.39 652.343 729.403 612.02L753.183 572.09C777.423 531.387 768.2 479.837 732.037 449.527L721.44 440.647C695.697 419.073 695.697 380.927 721.44 359.353L732.037 350.473C768.2 320.163 777.423 268.615 753.183 227.911L729.403 187.977C705.39 147.656 655.933 130.265 611.74 145.148L598.507 149.605C564.613 161.02 529.847 140.211 523.59 108.539L520.957 95.2054C511.81 48.9171 470.487 16.6667 423.787 16.6667H376.223ZM344.46 108.125C347.163 94.4447 359.943 83.3334 376.223 83.3334H423.787C440.07 83.3334 452.85 94.4454 455.553 108.126L458.187 121.46C472.637 194.604 549.697 236.389 619.783 212.784L633.017 208.328C648.317 203.176 664.647 209.532 672.123 222.088L695.903 262.021C703.153 274.196 700.693 289.757 689.213 299.378L678.62 308.258C621.083 356.477 621.083 443.523 678.62 491.743L689.213 500.62C700.693 510.243 703.153 525.803 695.903 537.98L672.123 577.91C664.647 590.467 648.317 596.823 633.017 591.67L619.787 587.213C549.697 563.607 472.637 605.393 458.187 678.54L455.553 691.873C452.85 705.553 440.07 716.667 423.787 716.667H376.223C359.943 716.667 347.163 705.557 344.46 691.873L341.823 678.533C327.371 605.39 250.31 563.607 180.222 587.217L166.997 591.67C151.697 596.823 135.368 590.467 127.89 577.91L104.11 537.977C96.8599 525.803 99.3196 510.243 110.799 500.62L121.395 491.74C178.927 443.52 178.927 356.48 121.395 308.26L110.799 299.379C99.3196 289.758 96.8599 274.197 104.11 262.022L127.891 222.089C135.369 209.532 151.698 203.176 166.997 208.329L180.225 212.784C250.313 236.389 327.371 194.606 341.823 121.464L344.46 108.125Z" fill="#CDCFD6"/>
</svg>
