<svg width="800" height="800" viewBox="0 0 800 800" fill="none" xmlns="http://www.w3.org/2000/svg">
<path fill-rule="evenodd" clip-rule="evenodd" d="M100 166.667C81.5907 166.667 66.6667 181.59 66.6667 200V600C66.6667 618.41 81.5907 633.333 100 633.333H700C718.41 633.333 733.333 618.41 733.333 600V200C733.333 181.591 718.41 166.667 700 166.667H100ZM0 200C0 144.772 44.7713 100 100 100H700C755.23 100 800 144.772 800 200V600C800 655.23 755.23 700 700 700H100C44.7717 700 0 655.23 0 600V200ZM200 350C200 322.386 222.386 300 250 300C277.614 300 300 322.386 300 350C300 377.613 277.614 400 250 400C222.386 400 200 377.613 200 350ZM339.187 425.217C356.333 404.907 366.667 378.66 366.667 350C366.667 285.567 314.433 233.333 250 233.333C185.567 233.333 133.333 285.567 133.333 350C133.333 378.66 143.667 404.907 160.813 425.217C122.745 449.98 100 490.23 100 533.333C100 551.743 114.924 566.667 133.333 566.667C151.743 566.667 166.667 551.743 166.667 533.333C166.667 503.817 193.349 466.667 250 466.667C306.651 466.667 333.333 503.817 333.333 533.333C333.333 551.743 348.257 566.667 366.667 566.667C385.077 566.667 400 551.743 400 533.333C400 490.23 377.257 449.98 339.187 425.217ZM433.333 266.667C414.923 266.667 400 281.591 400 300C400 318.409 414.923 333.333 433.333 333.333H633.333C651.743 333.333 666.667 318.409 666.667 300C666.667 281.591 651.743 266.667 633.333 266.667H433.333ZM466.667 400C448.257 400 433.333 414.923 433.333 433.333C433.333 451.743 448.257 466.667 466.667 466.667H600C618.41 466.667 633.333 451.743 633.333 433.333C633.333 414.923 618.41 400 600 400H466.667Z" fill="white"/>
</svg>
